<svg version="1" xmlns="http://www.w3.org/2000/svg" width="1800" height="1800" viewBox="0 0 1350.000000 1350.000000"><path d="M628.5 38.5c-62.2 4.9-122.1 18.6-182 41.6-105 40.3-199 110.3-270.2 200.9C105.8 370.8 60 481.1 46.6 593.5c-3.8 31.6-4.9 48.9-4.8 80 .2 86.7 17 169.3 50.4 247.5 38 88.7 94.7 166.9 166.3 229.4 26.2 23 47.5 38.9 78 58.3 87.6 55.8 188.3 89.2 294.5 97.4 20 1.5 72 1.5 92 0 29.3-2.3 64.1-7.5 92-13.7 231.5-51.6 414.6-227.1 475.8-455.9 14.8-55.2 21.4-106.3 21.3-165-.1-50-4.7-92.5-15.2-139-26.5-117.5-85.3-224.2-170.3-309-64.9-64.8-139.3-113.1-222.6-144.8-59-22.4-117.7-35.5-179.9-40.2-23.5-1.8-72.7-1.8-95.6 0zM691 305.8c8.5 4 13.8 8.7 18.7 16.4 2.3 3.5 19.3 32.8 37.8 65.3 18.6 32.4 40.7 71 49.1 85.7 117.9 205.3 113.3 197 121.8 220.8 11.9 33.9 17 69.8 14.7 104.3-2.5 35.8-10.7 66.6-26.1 98.2-35.6 73-102.9 125-182.5 141-33.5 6.8-62.4 7.2-95.5 1.4-103-18.1-184.8-95-209-196.4-5.5-22.9-6.5-32.7-6.5-60.5 0-28.1 1.2-38.4 6.6-60.8 5.5-22.3 12.3-40.6 22.3-59.7 3.5-6.6 48.7-86.3 100.5-177 66.2-115.9 95.5-166.3 98.4-169.3 4.8-5 11-8.9 18.2-11.5 3.9-1.4 7.2-1.7 15-1.4 8.7.3 10.8.8 16.5 3.5z"/><path d="M671.7 367.1c-1.9 3-6 10.2-90.2 157.4-38.4 67.1-74 129.3-79.1 138.2-17.7 30.9-24.5 46.9-30.3 71.6-4.8 20.3-6.4 49.2-4.1 70.2 4.3 37.7 20 75.3 44.1 105.5 55.7 70 150.7 96.6 234.4 65.5 22.9-8.5 41.5-19.4 60.7-35.4C845.4 908 872 859.7 878.6 810c1.7-13.4 2-39.7.4-52.5-2.4-20.5-8-40.9-16.2-59.5-2.9-6.5-33.8-61.6-72-128.5-36.9-64.3-78.1-136.4-91.6-160-13.5-23.7-24.8-43.4-25.3-43.9-.4-.4-1.4.2-2.2 1.5zm152.9 390.8c6.1 2.8 10.9 7.5 13.5 13.3 2.1 4.6 2.4 6.6 2.2 15.3-.7 30.4-11.4 62.3-29.6 88.2-8.8 12.5-27 30.4-39.2 38.5-26.6 17.8-50.5 26.3-80.7 28.7-16.7 1.4-22.9-.2-29.9-7.6-5.1-5.3-7.1-9.7-7.7-16.9-.4-5.1 0-7.1 2-11.5 5.4-11.7 12.3-15.6 29.7-16.9 18.4-1.4 28.7-4.2 43.4-11.8 23.6-12 40.5-30.1 50.6-54.1 4.7-11 7-21.1 8.2-35.1 1.5-18 5.7-25.6 17.1-30.5 4.8-2.1 15.4-1.9 20.4.4z"/></svg>