<?xml version="1.0" encoding="utf-8"?>
<!-- Generator: Adobe Illustrator 22.1.0, SVG Export Plug-In . SVG Version: 6.00 Build 0)  -->
<svg version="1.1" xmlns="http://www.w3.org/2000/svg" xmlns:xlink="http://www.w3.org/1999/xlink" x="0px" y="0px"
	 viewBox="0 0 663.2 168" style="enable-background:new 0 0 663.2 168;" xml:space="preserve">
<style type="text/css">
	.st0{fill:#2A4384;}
	.st1{fill:#A4D6AE;}
	.st2{fill:none;stroke:#31B4E1;stroke-miterlimit:10;}
	.st3{fill:#2A4384;stroke:#A4D6AE;stroke-miterlimit:10;}
	.st4{fill:#FFFFFF;}
</style>
<g id="Layer_1">
</g>
<g id="Layer_2">
	<g>
		<path class="st1" d="M92.6,139c-9.2,9.9-21.9,14.7-34.4,14.8c-1.4,0-2.8,0-4.2-0.1c-13.5-1-26.3-7.4-33.5-18.8
			C0.1,102.1,26,51.9,49.1,28c5.3-5.5,10.6-10.5,17.5-13.6c2.9-1.3,15.9-6.9,15.7,0.1c-0.1,3.9-5.9,9.2-7.2,12.6
			c-4.2,11,5,26.5,11.7,36.6c7.9,11.9,15,28.7,15.8,44.6C103.1,119.7,100.5,130.6,92.6,139z"/>
		<path class="st1" d="M103.1,108.4c-0.7-14.2-6.6-30.9-15.8-44.9C80.3,53.1,71.5,38,75.6,27.4c0.5-1.3,1.7-2.9,3-4.6
			c2.1-2.8,4.2-5.6,4.3-8.2c0-1.5-0.5-2.6-1.5-3.3c-3-2-9.8,0.3-14.9,2.7c-7.2,3.2-12.7,8.5-17.7,13.7C35.8,41.1,24.3,59.9,18,77.9
			c-5.5,15.8-9.5,38.5,2.2,57.2c6.8,10.9,19.5,18.1,33.8,19.1c0.6,0,1.2,0.1,1.8,0.1c0.5,0,0.9,0,1.3,0c0.3,0,0.7,0,1,0
			c0.6,0,1.2,0,1.8-0.1c12.7-0.6,24.7-6,33-14.9C100.3,131.5,103.7,121.1,103.1,108.4z M60,153.3c-0.6,0-1.2,0-1.8,0.1
			c-0.8,0-1.6,0-2.4,0c-0.6,0-1.2,0-1.8-0.1c-14-1-26.4-7.9-33.1-18.6C9.6,116.3,13.6,93.8,19,78.3c6.2-17.9,17.6-36.6,30.5-49.9
			c4.9-5.1,10.4-10.4,17.4-13.5c5-2.2,8.9-3.3,11.5-3.3c1.1,0,1.9,0.2,2.5,0.6c0.7,0.5,1.1,1.3,1,2.4c-0.1,2.2-2.2,5.1-4.1,7.6
			c-1.3,1.8-2.6,3.4-3.1,4.8c-4.2,11,4.7,26.5,11.7,37.1c9.2,13.8,15,30.4,15.7,44.4c0,0.9,0.1,1.9,0.1,2.8
			c0,11.2-3.3,20.4-9.9,27.4C84.1,147.4,72.5,152.7,60,153.3z"/>
	</g>
	<g>
		<path class="st3" d="M57.5,128.8C57.5,128.8,57.5,128.8,57.5,128.8c-5,3.2-18.5,0.5-26.2-10.9c-7.8-11.5-8.6-35.4-7.4-36.3
			c1.5-1,22.9,5.9,30.7,17.5c2.4,3.5,4,7.4,5,11.2C61.9,118.6,60.9,126.5,57.5,128.8z"/>
		<path class="st1" d="M52.2,131.1c-6.6,0-15.8-4-21.7-12.7c-7.6-11.1-9.4-36.2-7.1-37.7c2.3-1.6,24.3,6.3,32.1,17.7
			c2.3,3.4,4.1,7.4,5.2,11.5c2.3,8.8,1.3,17.1-2.5,19.7l-0.2,0.2l-0.1,0C56.3,130.7,54.4,131.1,52.2,131.1z M24.6,82.4
			c-0.8,3.4,0.5,24.5,7.5,34.9c7.7,11.4,20.5,13.4,24.7,10.7l0.3-0.2c2.5-2.1,3.8-9,1.5-17.4c-1-3.9-2.7-7.7-4.9-10.9
			C46.8,89.3,28,82.5,24.6,82.4z M24.3,82.5L24.3,82.5L24.3,82.5z"/>
	</g>
	<g>
		<path class="st3" d="M77,125.8c-7,5-19.6,3.2-19.6,3.2c3.1-0.9,4.5-10.4,2.2-18.8c1.5-1.8,3.2-3.4,5.1-4.8
			c9-6.5,26.8-5.8,27.6-4.6C93.1,101.8,86,119.3,77,125.8z"/>
		<path class="st1" d="M62.5,130.3c-3.1,0-5.5-0.3-5.7-0.5l-1.7-0.5l2.4-1.5c2.5-1.7,3.4-8.9,1.2-17.4l-0.1-0.5l0.3-0.4
			c1.5-1.8,3.3-3.5,5.3-4.9c8.7-6.3,27.4-6.6,29-4.4c1.5,2.2-7.1,20.3-15.6,26.4l0,0C73.4,129.6,67.1,130.3,62.5,130.3z M59.8,128.2
			c3.9,0.2,11.7,0.2,16.6-3.3c7.8-5.6,14.4-20.5,15-23.6c-3-0.8-18.2-0.8-26,4.8c-1.7,1.2-3.3,2.7-4.6,4.2
			C62.4,116.8,62.1,124.7,59.8,128.2z M91.8,101.5L91.8,101.5L91.8,101.5z"/>
	</g>
	<path class="st0" d="M60,130.8v23.5c-0.6,0-1.2,0-1.8,0.1c-0.3,0-0.7,0-1,0c-0.4,0-0.9,0-1.3,0v-23.5c0-1,0.7-1.8,1.6-1.8h1
		C59.3,129,60,129.8,60,130.8z"/>
	<g>
		<path class="st4" d="M162.9,125.5c-4-1.5-7.8-3.8-11.4-7.1c-1.5-1.3-2.2-2.7-2.2-4.4c0-1.3,0.5-2.4,1.5-3.5c1-1,2.2-1.5,3.5-1.5
			c1.2,0,2.2,0.4,3.1,1.2c2.8,2.6,5.8,4.6,8.8,5.8c3,1.2,6.4,1.9,10.3,1.9c4.5,0,8.3-1,11.3-3.1c3.1-2.1,4.6-4.6,4.6-7.8
			c-0.1-3.7-1.6-6.5-4.6-8.6c-3-2-7.6-3.7-13.8-5.1c-7.3-1.5-12.9-3.9-16.9-7.3c-3.9-3.4-5.9-8.1-5.9-14.2c0-4.2,1.1-7.9,3.3-11
			c2.2-3.2,5.3-5.6,9.2-7.3c3.9-1.7,8.3-2.6,13.2-2.6c4.4,0,8.6,0.7,12.5,2.1c3.9,1.4,7.1,3.3,9.5,5.6c1.6,1.4,2.4,2.9,2.4,4.6
			c0,1.3-0.5,2.4-1.4,3.4c-1,1-2.1,1.5-3.5,1.5c-1,0-1.8-0.3-2.4-0.9c-1.8-1.8-4.4-3.4-7.7-4.7c-3.3-1.3-6.4-1.9-9.4-1.9
			c-4.8,0-8.5,1-11.3,2.9c-2.8,2-4.2,4.5-4.2,7.7c0,3.5,1.4,6.1,4.2,8c2.8,1.8,7,3.4,12.5,4.7c5.5,1.2,10.1,2.6,13.6,4.3
			c3.5,1.6,6.2,3.9,8.1,6.8c1.9,2.9,2.9,6.7,2.9,11.4c0,4.1-1.2,7.8-3.5,11c-2.3,3.2-5.4,5.7-9.4,7.5c-4,1.8-8.3,2.7-13.1,2.7
			C171.5,127.7,166.9,127,162.9,125.5z"/>
		<path class="st4" d="M260,72.4c1,1,1.4,2.2,1.4,3.6v28.3c0,7.4-2,13.1-6.1,17.2c-4.1,4.1-9.8,6.1-17.3,6.1c-7.4,0-13.1-2-17.1-6.1
			c-4-4.1-6.1-9.8-6.1-17.2V76c0-1.4,0.5-2.6,1.4-3.6c1-1,2.1-1.5,3.6-1.5c1.5,0,2.7,0.5,3.7,1.5c1,1,1.4,2.2,1.4,3.6v28.3
			c0,9.3,4.4,13.9,13.1,13.9c4.3,0,7.6-1.2,9.9-3.5c2.3-2.3,3.4-5.8,3.4-10.4V76c0-1.4,0.5-2.6,1.4-3.6c1-1,2.1-1.5,3.6-1.5
			C257.8,70.9,259,71.4,260,72.4z"/>
		<path class="st4" d="M324.1,92.6v29c0,1.4-0.5,2.6-1.4,3.6c-1,1-2.2,1.5-3.7,1.5c-1.4,0-2.6-0.5-3.6-1.5c-1-1-1.4-2.2-1.4-3.6
			V92.7c0-4.2-1-7.5-2.9-10c-1.9-2.5-5-3.7-9.4-3.7c-2.8,0-5.4,0.6-7.7,1.9c-2.3,1.2-4.1,2.9-5.4,5c-1.3,2.1-2,4.4-2,6.9v28.8
			c0,1.4-0.5,2.6-1.4,3.6c-1,1-2.2,1.5-3.7,1.5c-1.5,0-2.7-0.5-3.6-1.4c-0.9-1-1.4-2.2-1.4-3.7V76c0-1.4,0.5-2.6,1.4-3.6
			c1-1,2.1-1.5,3.6-1.5c1.5,0,2.7,0.5,3.7,1.5c1,1,1.4,2.2,1.4,3.6v3.7c1.8-2.8,4.4-5.2,7.7-7.2c3.3-2,6.8-2.9,10.6-2.9
			C317.7,69.6,324.1,77.3,324.1,92.6z"/>
		<path class="st4" d="M410.2,55.2c3.2,2,5.7,4.8,7.6,8.3c1.9,3.5,2.8,7.3,2.8,11.5c0,4.2-0.9,8.1-2.8,11.6
			c-1.9,3.6-4.4,6.4-7.6,8.4C407,97,403.6,98,399.8,98h-20v23.5c0,1.4-0.5,2.6-1.4,3.6c-0.9,1-2.1,1.5-3.5,1.5
			c-1.5,0-2.7-0.5-3.6-1.4c-0.9-1-1.3-2.2-1.3-3.7V57.3c0-1.4,0.5-2.6,1.5-3.6c1-1,2.2-1.5,3.6-1.5h24.7
			C403.6,52.1,407,53.2,410.2,55.2z M405.1,86.5c1.6-1.2,2.9-2.9,3.9-5c1-2.1,1.4-4.3,1.4-6.6c0-3.6-1-6.7-3.1-9.2
			c-2.1-2.5-4.6-3.8-7.5-3.8h-20v26.4h20C401.7,88.3,403.5,87.7,405.1,86.5z"/>
		<path class="st4" d="M477.2,72.4c1,1,1.4,2.2,1.4,3.6v28.3c0,7.4-2,13.1-6.1,17.2c-4.1,4.1-9.8,6.1-17.3,6.1
			c-7.4,0-13.1-2-17.1-6.1c-4-4.1-6.1-9.8-6.1-17.2V76c0-1.4,0.5-2.6,1.4-3.6c1-1,2.1-1.5,3.6-1.5c1.5,0,2.7,0.5,3.7,1.5
			c1,1,1.4,2.2,1.4,3.6v28.3c0,9.3,4.4,13.9,13.1,13.9c4.3,0,7.6-1.2,9.9-3.5c2.3-2.3,3.4-5.8,3.4-10.4V76c0-1.4,0.5-2.6,1.4-3.6
			c1-1,2.1-1.5,3.6-1.5C475.1,70.9,476.3,71.4,477.2,72.4z"/>
		<path class="st4" d="M576.4,93.1v28.4c0,1.5-0.5,2.7-1.4,3.7c-0.9,1-2.1,1.4-3.6,1.4c-1.5,0-2.7-0.5-3.7-1.5c-1-1-1.4-2.2-1.4-3.6
			V93.2c0-9.3-3.9-13.9-11.7-13.9c-2.8,0-5.3,0.6-7.5,1.9c-2.2,1.2-4,2.9-5.2,5.1c-1.2,2.1-1.9,4.5-1.9,7v28.3
			c0,1.4-0.5,2.6-1.4,3.6c-1,1-2.2,1.5-3.7,1.5c-1.5,0-2.7-0.5-3.6-1.4c-0.9-1-1.4-2.2-1.4-3.7V93.1c0-4.2-0.9-7.5-2.7-10.1
			c-1.8-2.5-4.7-3.8-8.8-3.8c-4.2,0-7.6,1.3-10.4,4c-2.7,2.7-4.1,5.9-4.1,9.8v28.4c0,1.4-0.5,2.6-1.4,3.6c-1,1-2.2,1.5-3.7,1.5
			c-1.5,0-2.7-0.5-3.6-1.4c-0.9-1-1.4-2.2-1.4-3.7V76c0-1.4,0.5-2.6,1.4-3.6c1-1,2.1-1.5,3.6-1.5c1.5,0,2.7,0.5,3.7,1.5
			c1,1,1.4,2.2,1.4,3.6v3.7c1.8-2.8,4.3-5.1,7.4-7c3.1-1.9,6.4-2.8,10.1-2.8c8.8,0,14.5,3.9,17.1,11.7c1.6-3,4.2-5.7,7.8-8.1
			c3.6-2.4,7.5-3.6,11.5-3.6C570.2,69.9,576.4,77.7,576.4,93.1z"/>
		<path class="st4" d="M632.6,73.6c3.9,2.4,7,5.9,9.2,10.3c2.2,4.4,3.4,9.4,3.4,14.9c0,5.5-1.1,10.5-3.4,14.9
			c-2.2,4.4-5.3,7.8-9.2,10.3c-3.9,2.5-8.2,3.7-12.9,3.7c-3.7,0-7.1-0.8-10.3-2.4c-3.2-1.6-5.8-3.6-7.8-6v23.6
			c0,1.4-0.5,2.6-1.4,3.6c-1,1-2.2,1.5-3.7,1.5c-1.4,0-2.6-0.5-3.6-1.4c-1-1-1.4-2.2-1.4-3.7v-67c0-1.5,0.5-2.7,1.4-3.7
			c0.9-1,2.1-1.5,3.6-1.5c1.5,0,2.7,0.5,3.7,1.5c1,1,1.4,2.2,1.4,3.7V79c1.7-2.5,4.2-4.6,7.5-6.4c3.3-1.8,6.7-2.7,10.4-2.7
			C624.3,69.9,628.7,71.1,632.6,73.6z M627.2,115.7c2.6-1.7,4.7-4,6.1-7c1.5-2.9,2.2-6.3,2.2-10c0-3.7-0.7-7-2.2-10
			c-1.5-2.9-3.5-5.3-6.1-7c-2.6-1.7-5.6-2.6-8.8-2.6c-3.3,0-6.3,0.8-8.9,2.5c-2.6,1.7-4.7,4-6.1,7c-1.5,3-2.2,6.3-2.2,10
			c0,3.7,0.7,7,2.2,10c1.5,3,3.5,5.3,6.1,7c2.6,1.7,5.6,2.5,8.9,2.5C621.6,118.3,624.6,117.4,627.2,115.7z"/>
	</g>
</g>
</svg>
