<?xml version="1.0" encoding="utf-8"?>
<!-- Generator: Adobe Illustrator 22.1.0, SVG Export Plug-In . SVG Version: 6.00 Build 0)  -->
<svg version="1.1" xmlns="http://www.w3.org/2000/svg" xmlns:xlink="http://www.w3.org/1999/xlink" x="0px" y="0px"
	 viewBox="0 0 663.2 168" style="enable-background:new 0 0 663.2 168;" xml:space="preserve">
<style type="text/css">
	.st0{fill:#2A4384;}
	.st1{fill:#A4D6AE;}
	.st2{fill:none;stroke:#31B4E1;stroke-miterlimit:10;}
	.st3{fill:#2A4384;stroke:#A4D6AE;stroke-miterlimit:10;}
	.st4{fill:#FFFFFF;}
</style>
<g id="Layer_1">
</g>
<g id="Layer_2">
	<g>
		<g>
			<path class="st0" d="M95.3,140.5c-9.2,9.9-21.9,14.7-34.4,14.8c-1.4,0-2.8,0-4.2-0.1c-13.5-1-26.3-7.4-33.5-18.8
				c-20.5-32.8,5.4-83,28.5-106.9C57.1,24.1,62.4,19,69.4,16c2.9-1.3,15.9-6.9,15.7,0.1c-0.1,3.9-5.9,9.2-7.2,12.6
				c-4.2,11,5,26.5,11.7,36.6c7.9,11.9,15,28.7,15.8,44.6C105.8,121.3,103.1,132.1,95.3,140.5z"/>
			<path class="st0" d="M105.8,110c-0.7-14.2-6.6-30.9-15.8-44.9C83,54.6,74.2,39.5,78.3,28.9c0.5-1.3,1.7-2.9,3-4.6
				c2.1-2.8,4.2-5.6,4.3-8.2c0-1.5-0.5-2.6-1.5-3.3c-3-2-9.8,0.3-14.9,2.7C62,18.7,56.5,24,51.5,29.2C38.5,42.6,27,61.4,20.7,79.5
				c-5.5,15.8-9.5,38.5,2.2,57.2c6.8,10.9,19.5,18.1,33.8,19.1c0.6,0,1.2,0.1,1.8,0.1c0.5,0,0.9,0,1.3,0c0.3,0,0.7,0,1,0
				c0.6,0,1.2,0,1.8-0.1c12.7-0.6,24.7-6,33-14.9C103,133.1,106.4,122.7,105.8,110z M62.7,154.8c-0.6,0-1.2,0-1.8,0.1
				c-0.8,0-1.6,0-2.4,0c-0.6,0-1.2,0-1.8-0.1c-14-1-26.4-7.9-33.1-18.6c-11.5-18.4-7.5-40.8-2.1-56.3c6.2-17.9,17.6-36.6,30.5-49.9
				c4.9-5.1,10.4-10.4,17.4-13.5c5-2.2,8.9-3.3,11.5-3.3c1.1,0,1.9,0.2,2.5,0.6c0.7,0.5,1.1,1.3,1,2.4c-0.1,2.2-2.2,5.1-4.1,7.6
				c-1.3,1.8-2.6,3.4-3.1,4.8C73.1,39.6,82,55,89.1,65.6c9.2,13.8,15,30.4,15.7,44.4c0,0.9,0.1,1.9,0.1,2.8
				c0,11.2-3.3,20.4-9.9,27.4C86.8,148.9,75.2,154.2,62.7,154.8z"/>
		</g>
		<g>
			<path class="st1" d="M60.2,130.4C60.2,130.4,60.2,130.4,60.2,130.4c-5,3.2-18.5,0.5-26.2-10.9c-7.8-11.5-8.6-35.4-7.4-36.3
				c1.5-1,22.9,5.9,30.7,17.5c2.4,3.5,4,7.4,5,11.2C64.6,120.2,63.6,128.1,60.2,130.4z"/>
			<path class="st0" d="M54.9,132.7c-6.6,0-15.8-4-21.7-12.7c-7.6-11.1-9.4-36.2-7.1-37.7c2.3-1.6,24.3,6.3,32.1,17.7
				c2.3,3.4,4.1,7.4,5.2,11.5c2.3,8.8,1.3,17.1-2.5,19.7l-0.2,0.2l-0.1,0C59,132.2,57.1,132.7,54.9,132.7z M27.3,84
				c-0.8,3.4,0.5,24.5,7.5,34.9c7.7,11.4,20.5,13.4,24.7,10.7l0.3-0.2c2.5-2.1,3.8-9,1.5-17.4c-1-3.9-2.7-7.7-4.9-10.9
				C49.5,90.8,30.7,84.1,27.3,84z M27,84L27,84L27,84z"/>
		</g>
		<g>
			<path class="st1" d="M79.7,127.3c-7,5-19.6,3.2-19.6,3.2c3.1-0.9,4.5-10.4,2.2-18.8c1.5-1.8,3.2-3.4,5.1-4.8
				c9-6.5,26.8-5.8,27.6-4.6C95.8,103.3,88.6,120.9,79.7,127.3z"/>
			<path class="st0" d="M65.2,131.9c-3.1,0-5.5-0.3-5.7-0.5l-1.7-0.5l2.4-1.5c2.5-1.7,3.4-8.9,1.2-17.4l-0.1-0.5l0.3-0.4
				c1.5-1.8,3.3-3.5,5.3-4.9c8.7-6.3,27.4-6.6,29-4.4c1.5,2.2-7.1,20.3-15.6,26.4l0,0C76.1,131.2,69.8,131.9,65.2,131.9z
				 M62.5,129.8c3.9,0.2,11.7,0.2,16.6-3.3c7.8-5.6,14.4-20.5,15-23.6c-3-0.8-18.2-0.8-26,4.8c-1.7,1.2-3.3,2.7-4.6,4.2
				C65,118.4,64.8,126.3,62.5,129.8z M94.5,103.1L94.5,103.1L94.5,103.1z"/>
		</g>
		<path class="st1" d="M62.7,132.3v23.5c-0.6,0-1.2,0-1.8,0.1c-0.3,0-0.7,0-1,0c-0.4,0-0.9,0-1.3,0v-23.5c0-1,0.7-1.8,1.6-1.8h1
			C62,130.6,62.7,131.3,62.7,132.3z"/>
		<g>
			<path class="st0" d="M165.6,127.1c-4-1.5-7.8-3.8-11.4-7.1c-1.5-1.3-2.2-2.7-2.2-4.4c0-1.3,0.5-2.4,1.5-3.5c1-1,2.2-1.5,3.5-1.5
				c1.2,0,2.2,0.4,3.1,1.2c2.8,2.6,5.8,4.6,8.8,5.8c3,1.2,6.4,1.9,10.3,1.9c4.5,0,8.3-1,11.3-3.1c3.1-2.1,4.6-4.6,4.6-7.8
				c-0.1-3.7-1.6-6.5-4.6-8.6c-3-2-7.6-3.7-13.8-5.1c-7.3-1.5-12.9-3.9-16.9-7.3c-3.9-3.4-5.9-8.1-5.9-14.2c0-4.2,1.1-7.9,3.3-11
				c2.2-3.2,5.3-5.6,9.2-7.3c3.9-1.7,8.3-2.6,13.2-2.6c4.4,0,8.6,0.7,12.5,2.1c3.9,1.4,7.1,3.3,9.5,5.6c1.6,1.4,2.4,2.9,2.4,4.6
				c0,1.3-0.5,2.4-1.4,3.4c-1,1-2.1,1.5-3.5,1.5c-1,0-1.8-0.3-2.4-0.9c-1.8-1.8-4.4-3.4-7.7-4.7c-3.3-1.3-6.4-1.9-9.4-1.9
				c-4.8,0-8.5,1-11.3,2.9c-2.8,2-4.2,4.5-4.2,7.7c0,3.5,1.4,6.1,4.2,8c2.8,1.8,7,3.4,12.5,4.7c5.5,1.2,10.1,2.6,13.6,4.3
				c3.5,1.6,6.2,3.9,8.1,6.8c1.9,2.9,2.9,6.7,2.9,11.4c0,4.1-1.2,7.8-3.5,11c-2.3,3.2-5.4,5.7-9.4,7.5c-4,1.8-8.3,2.7-13.1,2.7
				C174.2,129.3,169.6,128.5,165.6,127.1z"/>
			<path class="st0" d="M262.6,73.9c1,1,1.4,2.2,1.4,3.6v28.3c0,7.4-2,13.1-6.1,17.2c-4.1,4.1-9.8,6.1-17.3,6.1
				c-7.4,0-13.1-2-17.1-6.1c-4-4.1-6.1-9.8-6.1-17.2V77.5c0-1.4,0.5-2.6,1.4-3.6c1-1,2.1-1.5,3.6-1.5c1.5,0,2.7,0.5,3.7,1.5
				c1,1,1.4,2.2,1.4,3.6v28.3c0,9.3,4.4,13.9,13.1,13.9c4.3,0,7.6-1.2,9.9-3.5c2.3-2.3,3.4-5.8,3.4-10.4V77.5c0-1.4,0.5-2.6,1.4-3.6
				c1-1,2.1-1.5,3.6-1.5C260.5,72.4,261.7,72.9,262.6,73.9z"/>
			<path class="st0" d="M326.8,94.1v29c0,1.4-0.5,2.6-1.4,3.6c-1,1-2.2,1.5-3.7,1.5c-1.4,0-2.6-0.5-3.6-1.5c-1-1-1.4-2.2-1.4-3.6
				V94.2c0-4.2-1-7.5-2.9-10c-1.9-2.5-5-3.7-9.4-3.7c-2.8,0-5.4,0.6-7.7,1.9c-2.3,1.2-4.1,2.9-5.4,5c-1.3,2.1-2,4.4-2,6.9v28.8
				c0,1.4-0.5,2.6-1.4,3.6c-1,1-2.2,1.5-3.7,1.5c-1.5,0-2.7-0.5-3.6-1.4c-0.9-1-1.4-2.2-1.4-3.7V77.5c0-1.4,0.5-2.6,1.4-3.6
				c1-1,2.1-1.5,3.6-1.5c1.5,0,2.7,0.5,3.7,1.5c1,1,1.4,2.2,1.4,3.6v3.7c1.8-2.8,4.4-5.2,7.7-7.2c3.3-2,6.8-2.9,10.6-2.9
				C320.4,71.1,326.8,78.8,326.8,94.1z"/>
			<path class="st0" d="M412.9,56.7c3.2,2,5.7,4.8,7.6,8.3c1.9,3.5,2.8,7.3,2.8,11.5c0,4.2-0.9,8.1-2.8,11.6
				c-1.9,3.6-4.4,6.4-7.6,8.4c-3.2,2.1-6.7,3.1-10.4,3.1h-20v23.5c0,1.4-0.5,2.6-1.4,3.6c-0.9,1-2.1,1.5-3.5,1.5
				c-1.5,0-2.7-0.5-3.6-1.4c-0.9-1-1.3-2.2-1.3-3.7V58.8c0-1.4,0.5-2.6,1.5-3.6c1-1,2.2-1.5,3.6-1.5h24.7
				C406.2,53.7,409.7,54.7,412.9,56.7z M407.8,88c1.6-1.2,2.9-2.9,3.9-5c1-2.1,1.4-4.3,1.4-6.6c0-3.6-1-6.7-3.1-9.2
				c-2.1-2.5-4.6-3.8-7.5-3.8h-20v26.4h20C404.4,89.9,406.2,89.3,407.8,88z"/>
			<path class="st0" d="M479.9,73.9c1,1,1.4,2.2,1.4,3.6v28.3c0,7.4-2,13.1-6.1,17.2c-4.1,4.1-9.8,6.1-17.3,6.1
				c-7.4,0-13.1-2-17.1-6.1c-4-4.1-6.1-9.8-6.1-17.2V77.5c0-1.4,0.5-2.6,1.4-3.6c1-1,2.1-1.5,3.6-1.5c1.5,0,2.7,0.5,3.7,1.5
				c1,1,1.4,2.2,1.4,3.6v28.3c0,9.3,4.4,13.9,13.1,13.9c4.3,0,7.6-1.2,9.9-3.5c2.3-2.3,3.4-5.8,3.4-10.4V77.5c0-1.4,0.5-2.6,1.4-3.6
				c1-1,2.1-1.5,3.6-1.5C477.7,72.4,479,72.9,479.9,73.9z"/>
			<path class="st0" d="M579.1,94.7v28.4c0,1.5-0.5,2.7-1.4,3.7c-0.9,1-2.1,1.4-3.6,1.4c-1.5,0-2.7-0.5-3.7-1.5
				c-1-1-1.4-2.2-1.4-3.6V94.8c0-9.3-3.9-13.9-11.7-13.9c-2.8,0-5.3,0.6-7.5,1.9c-2.2,1.2-4,2.9-5.2,5.1c-1.2,2.1-1.9,4.5-1.9,7
				v28.3c0,1.4-0.5,2.6-1.4,3.6c-1,1-2.2,1.5-3.7,1.5c-1.5,0-2.7-0.5-3.6-1.4c-0.9-1-1.4-2.2-1.4-3.7V94.7c0-4.2-0.9-7.5-2.7-10.1
				c-1.8-2.5-4.7-3.8-8.8-3.8c-4.2,0-7.6,1.3-10.4,4c-2.7,2.7-4.1,5.9-4.1,9.8v28.4c0,1.4-0.5,2.6-1.4,3.6c-1,1-2.2,1.5-3.7,1.5
				c-1.5,0-2.7-0.5-3.6-1.4c-0.9-1-1.4-2.2-1.4-3.7V77.5c0-1.4,0.5-2.6,1.4-3.6c1-1,2.1-1.5,3.6-1.5c1.5,0,2.7,0.5,3.7,1.5
				c1,1,1.4,2.2,1.4,3.6v3.7c1.8-2.8,4.3-5.1,7.4-7c3.1-1.9,6.4-2.8,10.1-2.8c8.8,0,14.5,3.9,17.1,11.7c1.6-3,4.2-5.7,7.8-8.1
				c3.6-2.4,7.5-3.6,11.5-3.6C572.9,71.5,579.1,79.2,579.1,94.7z"/>
			<path class="st0" d="M635.3,75.1c3.9,2.4,7,5.9,9.2,10.3c2.2,4.4,3.4,9.4,3.4,14.9c0,5.5-1.1,10.5-3.4,14.9
				c-2.2,4.4-5.3,7.8-9.2,10.3c-3.9,2.5-8.2,3.7-12.9,3.7c-3.7,0-7.1-0.8-10.3-2.4c-3.2-1.6-5.8-3.6-7.8-6v23.6
				c0,1.4-0.5,2.6-1.4,3.6c-1,1-2.2,1.5-3.7,1.5c-1.4,0-2.6-0.5-3.6-1.4c-1-1-1.4-2.2-1.4-3.7v-67c0-1.5,0.5-2.7,1.4-3.7
				c0.9-1,2.1-1.5,3.6-1.5c1.5,0,2.7,0.5,3.7,1.5c1,1,1.4,2.2,1.4,3.7v3.1c1.7-2.5,4.2-4.6,7.5-6.4c3.3-1.8,6.7-2.7,10.4-2.7
				C627,71.5,631.4,72.7,635.3,75.1z M629.9,117.2c2.6-1.7,4.7-4,6.1-7c1.5-2.9,2.2-6.3,2.2-10c0-3.7-0.7-7-2.2-10
				c-1.5-2.9-3.5-5.3-6.1-7c-2.6-1.7-5.6-2.6-8.8-2.6c-3.3,0-6.3,0.8-8.9,2.5c-2.6,1.7-4.7,4-6.1,7c-1.5,3-2.2,6.3-2.2,10
				c0,3.7,0.7,7,2.2,10c1.5,3,3.5,5.3,6.1,7c2.6,1.7,5.6,2.5,8.9,2.5C624.3,119.8,627.2,118.9,629.9,117.2z"/>
		</g>
	</g>
</g>
</svg>
